<svg xmlns="http://www.w3.org/2000/svg" width="440" height="280" viewBox="0 0 440 280" role="img" aria-label="Baulko Bell Times small promo tile">
  <defs>
    <linearGradient id="bg" x1="0" y1="0" x2="1" y2="1">
      <stop offset="0%" stop-color="#eef6ff"/>
      <stop offset="100%" stop-color="#f7f0ff"/>
    </linearGradient>
    <linearGradient id="accent" x1="0" y1="0" x2="1" y2="0">
      <stop offset="0%" stop-color="#2563eb"/>
      <stop offset="100%" stop-color="#7c3aed"/>
    </linearGradient>
    <radialGradient id="glowA" cx="0" cy="0" r="1" gradientUnits="userSpaceOnUse" gradientTransform="translate(408 36) rotate(144) scale(240 210)">
      <stop offset="0%" stop-color="#93c5fd" stop-opacity="0.54"/>
      <stop offset="100%" stop-color="#93c5fd" stop-opacity="0"/>
    </radialGradient>
    <radialGradient id="glowB" cx="0" cy="0" r="1" gradientUnits="userSpaceOnUse" gradientTransform="translate(22 272) rotate(-28) scale(248 220)">
      <stop offset="0%" stop-color="#c4b5fd" stop-opacity="0.45"/>
      <stop offset="100%" stop-color="#c4b5fd" stop-opacity="0"/>
    </radialGradient>
    <filter id="softShadow" x="-20%" y="-20%" width="140%" height="140%">
      <feDropShadow dx="0" dy="12" stdDeviation="12" flood-color="#1f2a44" flood-opacity="0.14"/>
    </filter>
  </defs>

  <rect width="440" height="280" rx="28" fill="url(#bg)"/>
  <rect width="440" height="280" rx="28" fill="url(#glowA)"/>
  <rect width="440" height="280" rx="28" fill="url(#glowB)"/>
  <rect x="1" y="1" width="438" height="278" rx="27" fill="none" stroke="#ffffff" stroke-opacity="0.6"/>

  <rect x="24" y="44" width="146" height="192" rx="30" fill="#ffffff" fill-opacity="0.94" filter="url(#softShadow)"/>
  <rect x="36" y="56" width="122" height="168" rx="24" fill="#f6f8ff" stroke="#dbe5ff"/>

  <g transform="translate(47 77) scale(1.04)">
    <path d="M50 15c-15 0-25 10-25 25v25l-10 10h70l-10-10V40c0-15-10-25-25-25z" fill="#6d28d9"/>
    <path d="M50 85c5.5 0 10-4.5 10-10H40c0 5.5 4.5 10 10 10z" fill="#6d28d9"/>
    <path d="M50 15c-2.8 0-5-2.2-5-5s2.2-5 5-5 5 2.2 5 5-2.2 5-5 5z" fill="#6d28d9"/>
  </g>

  <rect x="194" y="56" width="122" height="28" rx="14" fill="#e0ebff"/>
  <text x="255" y="74" text-anchor="middle" fill="#2856c5" font-size="12" font-weight="700" font-family="Avenir Next, Helvetica Neue, Arial, sans-serif">Chrome extension</text>

  <text x="194" y="124" fill="#13182d" font-size="29" font-weight="800" font-family="Avenir Next, Helvetica Neue, Arial, sans-serif">Baulko</text>
  <text x="194" y="157" fill="#13182d" font-size="29" font-weight="800" font-family="Avenir Next, Helvetica Neue, Arial, sans-serif">Bell Times</text>

  <text x="194" y="188" fill="#49526e" font-size="13" font-weight="600" font-family="Avenir Next, Helvetica Neue, Arial, sans-serif">Bell countdowns and your</text>
  <text x="194" y="206" fill="#49526e" font-size="13" font-weight="600" font-family="Avenir Next, Helvetica Neue, Arial, sans-serif">daily timetable in one popup</text>

  <rect x="194" y="224" width="148" height="10" rx="5" fill="url(#accent)" opacity="0.96"/>
  <text x="194" y="252" fill="#5a6483" font-size="12" font-weight="700" font-family="Avenir Next, Helvetica Neue, Arial, sans-serif">Built for fast school-day check-ins</text>
</svg>
